<svg xmlns="http://www.w3.org/2000/svg" viewBox="0 0 1200 750" role="img" aria-label="Customer Feedback">
  <defs>
    <linearGradient id="bg" x1="0" y1="0" x2="1" y2="1">
      <stop offset="0%" stop-color="#0a1828"/>
      <stop offset="100%" stop-color="#11344c"/>
    </linearGradient>
    <radialGradient id="glowA" cx="18%" cy="22%" r="55%">
      <stop offset="0%" stop-color="#79f0cf" stop-opacity="0.22"/>
      <stop offset="100%" stop-color="#79f0cf" stop-opacity="0"/>
    </radialGradient>
    <radialGradient id="glowB" cx="84%" cy="72%" r="42%">
      <stop offset="0%" stop-color="#ff8d8d" stop-opacity="0.20"/>
      <stop offset="100%" stop-color="#ff8d8d" stop-opacity="0"/>
    </radialGradient>
  </defs>
  <rect width="1200" height="750" fill="url(#bg)"/>
  <rect width="1200" height="750" fill="url(#glowA)"/>
  <rect width="1200" height="750" fill="url(#glowB)"/>
  <g opacity="0.08" stroke="#d7ecff" stroke-width="1">
    <path d="M0 110 H1200"/><path d="M0 220 H1200"/><path d="M0 330 H1200"/><path d="M0 440 H1200"/><path d="M0 550 H1200"/><path d="M0 660 H1200"/>
    <path d="M130 0 V750"/><path d="M290 0 V750"/><path d="M450 0 V750"/><path d="M610 0 V750"/><path d="M770 0 V750"/><path d="M930 0 V750"/><path d="M1090 0 V750"/>
  </g>
  <rect x="200" y="200" width="340" height="240" rx="32" fill="#10223c"/><path d="M260 440 L255 510 L335 450" fill="#10223c"/><rect x="280" y="260" width="170" height="18" rx="9" fill="#88c6ff" opacity="0.8"/><rect x="280" y="304" width="130" height="18" rx="9" fill="#79f0cf" opacity="0.9"/><rect x="280" y="348" width="150" height="18" rx="9" fill="#ff8d8d" opacity="0.85"/><circle cx="770" cy="320" r="112" fill="#10223c"/><path d="M725 315 C742 289, 790 289, 815 315" fill="none" stroke="#79f0cf" stroke-width="14" stroke-linecap="round"/><circle cx="735" cy="360" r="14" fill="#ff8d8d"/><circle cx="805" cy="360" r="14" fill="#88c6ff"/><path d="M725 400 C745 426, 794 426, 815 400" fill="none" stroke="#f6d77a" stroke-width="10" stroke-linecap="round"/>
</svg>