<svg xmlns="http://www.w3.org/2000/svg" viewBox="0 0 1200 750" role="img" aria-label="Bayesian Posterior">
  <defs>
    <linearGradient id="bg" x1="0" y1="0" x2="1" y2="1">
      <stop offset="0%" stop-color="#091627"/>
      <stop offset="100%" stop-color="#14304d"/>
    </linearGradient>
    <radialGradient id="glowA" cx="18%" cy="22%" r="55%">
      <stop offset="0%" stop-color="#8ac9ff" stop-opacity="0.22"/>
      <stop offset="100%" stop-color="#8ac9ff" stop-opacity="0"/>
    </radialGradient>
    <radialGradient id="glowB" cx="84%" cy="72%" r="42%">
      <stop offset="0%" stop-color="#79f0cf" stop-opacity="0.20"/>
      <stop offset="100%" stop-color="#79f0cf" stop-opacity="0"/>
    </radialGradient>
  </defs>
  <rect width="1200" height="750" fill="url(#bg)"/>
  <rect width="1200" height="750" fill="url(#glowA)"/>
  <rect width="1200" height="750" fill="url(#glowB)"/>
  <g opacity="0.08" stroke="#d7ecff" stroke-width="1">
    <path d="M0 110 H1200"/><path d="M0 220 H1200"/><path d="M0 330 H1200"/><path d="M0 440 H1200"/><path d="M0 550 H1200"/><path d="M0 660 H1200"/>
    <path d="M130 0 V750"/><path d="M290 0 V750"/><path d="M450 0 V750"/><path d="M610 0 V750"/><path d="M770 0 V750"/><path d="M930 0 V750"/><path d="M1090 0 V750"/>
  </g>
  <path d="M180 480 C250 470, 280 430, 320 330 C355 240, 390 205, 450 205 C505 205, 545 245, 585 330 C625 418, 660 470, 740 480" fill="none" stroke="#8ac9ff" stroke-width="12" stroke-linecap="round"/><path d="M520 475 C560 430, 590 340, 625 270 C655 210, 690 180, 730 180 C760 180, 792 196, 820 230 C852 268, 870 340, 900 470" fill="none" stroke="#79f0cf" stroke-width="10" stroke-linecap="round"/><g fill="#f6d77a" opacity="0.9"><circle cx="414" cy="228" r="8"/><circle cx="448" cy="202" r="8"/><circle cx="489" cy="225" r="8"/><circle cx="720" cy="182" r="8"/><circle cx="785" cy="210" r="8"/><circle cx="846" cy="298" r="8"/></g>
</svg>