<svg xmlns="http://www.w3.org/2000/svg" viewBox="0 0 1200 750" role="img" aria-label="Housing Forecast">
  <defs>
    <linearGradient id="bg" x1="0" y1="0" x2="1" y2="1">
      <stop offset="0%" stop-color="#09192b"/>
      <stop offset="100%" stop-color="#123b56"/>
    </linearGradient>
    <radialGradient id="glowA" cx="18%" cy="22%" r="55%">
      <stop offset="0%" stop-color="#79f0cf" stop-opacity="0.22"/>
      <stop offset="100%" stop-color="#79f0cf" stop-opacity="0"/>
    </radialGradient>
    <radialGradient id="glowB" cx="84%" cy="72%" r="42%">
      <stop offset="0%" stop-color="#88c6ff" stop-opacity="0.20"/>
      <stop offset="100%" stop-color="#88c6ff" stop-opacity="0"/>
    </radialGradient>
  </defs>
  <rect width="1200" height="750" fill="url(#bg)"/>
  <rect width="1200" height="750" fill="url(#glowA)"/>
  <rect width="1200" height="750" fill="url(#glowB)"/>
  <g opacity="0.08" stroke="#d7ecff" stroke-width="1">
    <path d="M0 110 H1200"/><path d="M0 220 H1200"/><path d="M0 330 H1200"/><path d="M0 440 H1200"/><path d="M0 550 H1200"/><path d="M0 660 H1200"/>
    <path d="M130 0 V750"/><path d="M290 0 V750"/><path d="M450 0 V750"/><path d="M610 0 V750"/><path d="M770 0 V750"/><path d="M930 0 V750"/><path d="M1090 0 V750"/>
  </g>
  <rect x="210" y="360" width="80" height="180" rx="10" fill="#10233c"/><rect x="305" y="300" width="92" height="240" rx="10" fill="#12304d"/><rect x="414" y="242" width="100" height="298" rx="10" fill="#173757"/><rect x="530" y="330" width="84" height="210" rx="10" fill="#12304d"/><rect x="628" y="272" width="94" height="268" rx="10" fill="#173757"/><polyline points="180,470 315,445 450,410 585,390 720,352 890,320 1010,300" fill="none" stroke="#79f0cf" stroke-width="12" stroke-linecap="round" stroke-linejoin="round"/><path d="M180 530 C310 490, 440 455, 585 430 C730 406, 885 365, 1010 340" fill="none" stroke="#88c6ff" stroke-width="8" opacity="0.6" stroke-linecap="round"/>
</svg>