<svg xmlns="http://www.w3.org/2000/svg" viewBox="0 0 1200 750" role="img" aria-label="Conversion Funnel">
  <defs>
    <linearGradient id="bg" x1="0" y1="0" x2="1" y2="1">
      <stop offset="0%" stop-color="#09192a"/>
      <stop offset="100%" stop-color="#123651"/>
    </linearGradient>
    <radialGradient id="glowA" cx="18%" cy="22%" r="55%">
      <stop offset="0%" stop-color="#79f0cf" stop-opacity="0.22"/>
      <stop offset="100%" stop-color="#79f0cf" stop-opacity="0"/>
    </radialGradient>
    <radialGradient id="glowB" cx="84%" cy="72%" r="42%">
      <stop offset="0%" stop-color="#88c6ff" stop-opacity="0.20"/>
      <stop offset="100%" stop-color="#88c6ff" stop-opacity="0"/>
    </radialGradient>
  </defs>
  <rect width="1200" height="750" fill="url(#bg)"/>
  <rect width="1200" height="750" fill="url(#glowA)"/>
  <rect width="1200" height="750" fill="url(#glowB)"/>
  <g opacity="0.08" stroke="#d7ecff" stroke-width="1">
    <path d="M0 110 H1200"/><path d="M0 220 H1200"/><path d="M0 330 H1200"/><path d="M0 440 H1200"/><path d="M0 550 H1200"/><path d="M0 660 H1200"/>
    <path d="M130 0 V750"/><path d="M290 0 V750"/><path d="M450 0 V750"/><path d="M610 0 V750"/><path d="M770 0 V750"/><path d="M930 0 V750"/><path d="M1090 0 V750"/>
  </g>
  <path d="M210 220 H540 L470 320 H280 Z" fill="#88c6ff" opacity="0.85"/><path d="M280 340 H470 L418 420 H330 Z" fill="#79f0cf" opacity="0.88"/><path d="M332 442 H418 L382 500 H368 Z" fill="#f6d77a" opacity="0.9"/><polyline points="670,490 740,430 810,445 880,360 980,300" fill="none" stroke="#79f0cf" stroke-width="12" stroke-linecap="round" stroke-linejoin="round"/><circle cx="980" cy="300" r="18" fill="#79f0cf"/><circle cx="740" cy="430" r="10" fill="#88c6ff"/><circle cx="880" cy="360" r="10" fill="#f6d77a"/>
</svg>