<svg xmlns="http://www.w3.org/2000/svg" viewBox="0 0 1200 750" role="img" aria-label="Fintech Experiment">
  <defs>
    <linearGradient id="bg" x1="0" y1="0" x2="1" y2="1">
      <stop offset="0%" stop-color="#091727"/>
      <stop offset="100%" stop-color="#153458"/>
    </linearGradient>
    <radialGradient id="glowA" cx="18%" cy="22%" r="55%">
      <stop offset="0%" stop-color="#79f0cf" stop-opacity="0.22"/>
      <stop offset="100%" stop-color="#79f0cf" stop-opacity="0"/>
    </radialGradient>
    <radialGradient id="glowB" cx="84%" cy="72%" r="42%">
      <stop offset="0%" stop-color="#88c6ff" stop-opacity="0.20"/>
      <stop offset="100%" stop-color="#88c6ff" stop-opacity="0"/>
    </radialGradient>
  </defs>
  <rect width="1200" height="750" fill="url(#bg)"/>
  <rect width="1200" height="750" fill="url(#glowA)"/>
  <rect width="1200" height="750" fill="url(#glowB)"/>
  <g opacity="0.08" stroke="#d7ecff" stroke-width="1">
    <path d="M0 110 H1200"/><path d="M0 220 H1200"/><path d="M0 330 H1200"/><path d="M0 440 H1200"/><path d="M0 550 H1200"/><path d="M0 660 H1200"/>
    <path d="M130 0 V750"/><path d="M290 0 V750"/><path d="M450 0 V750"/><path d="M610 0 V750"/><path d="M770 0 V750"/><path d="M930 0 V750"/><path d="M1090 0 V750"/>
  </g>
  <rect x="180" y="190" width="360" height="250" rx="28" fill="#10223c" stroke="#88c6ff" stroke-opacity="0.18"/><path d="M180 240 L360 360 L540 240" fill="none" stroke="#79f0cf" stroke-width="12" stroke-linecap="round" stroke-linejoin="round"/><path d="M220 460 C280 430, 330 410, 390 382 C440 360, 500 350, 560 340" fill="none" stroke="#f6d77a" stroke-width="14" stroke-linecap="round"/><circle cx="560" cy="340" r="18" fill="#f6d77a"/><rect x="700" y="230" width="150" height="250" rx="22" fill="#10223c"/><rect x="760" y="280" width="36" height="160" rx="18" fill="#79f0cf" opacity="0.9"/><rect x="820" y="330" width="36" height="110" rx="18" fill="#88c6ff" opacity="0.7"/><rect x="880" y="250" width="36" height="190" rx="18" fill="#f6d77a" opacity="0.85"/>
</svg>