<svg xmlns="http://www.w3.org/2000/svg" viewBox="0 0 1200 750" role="img" aria-label="Policy Shock">
  <defs>
    <linearGradient id="bg" x1="0" y1="0" x2="1" y2="1">
      <stop offset="0%" stop-color="#08192d"/>
      <stop offset="100%" stop-color="#103253"/>
    </linearGradient>
    <radialGradient id="glowA" cx="18%" cy="22%" r="55%">
      <stop offset="0%" stop-color="#79f0cf" stop-opacity="0.22"/>
      <stop offset="100%" stop-color="#79f0cf" stop-opacity="0"/>
    </radialGradient>
    <radialGradient id="glowB" cx="84%" cy="72%" r="42%">
      <stop offset="0%" stop-color="#88c6ff" stop-opacity="0.20"/>
      <stop offset="100%" stop-color="#88c6ff" stop-opacity="0"/>
    </radialGradient>
  </defs>
  <rect width="1200" height="750" fill="url(#bg)"/>
  <rect width="1200" height="750" fill="url(#glowA)"/>
  <rect width="1200" height="750" fill="url(#glowB)"/>
  <g opacity="0.08" stroke="#d7ecff" stroke-width="1">
    <path d="M0 110 H1200"/><path d="M0 220 H1200"/><path d="M0 330 H1200"/><path d="M0 440 H1200"/><path d="M0 550 H1200"/><path d="M0 660 H1200"/>
    <path d="M130 0 V750"/><path d="M290 0 V750"/><path d="M450 0 V750"/><path d="M610 0 V750"/><path d="M770 0 V750"/><path d="M930 0 V750"/><path d="M1090 0 V750"/>
  </g>
  <g opacity="0.18"><rect x="0" y="520" width="1200" height="230" fill="#16324d"/></g><line x1="160" y1="560" x2="1040" y2="560" stroke="#88c6ff" stroke-width="4" opacity="0.25"/><line x1="220" y1="600" x2="220" y2="250" stroke="#88c6ff" stroke-width="4" opacity="0.18"/><polyline points="220,500 360,470 500,455 640,448 780,430 920,388 1040,350" fill="none" stroke="#79f0cf" stroke-width="10" stroke-linecap="round" stroke-linejoin="round"/><rect x="730" y="220" width="24" height="250" rx="12" fill="#ffcf70" opacity="0.92"/><rect x="690" y="280" width="105" height="22" rx="11" fill="#ffcf70" opacity="0.18"/>
</svg>