<svg xmlns="http://www.w3.org/2000/svg" viewBox="0 0 1200 750" role="img" aria-label="Energy Forecast">
  <defs>
    <linearGradient id="bg" x1="0" y1="0" x2="1" y2="1">
      <stop offset="0%" stop-color="#091726"/>
      <stop offset="100%" stop-color="#113a52"/>
    </linearGradient>
    <radialGradient id="glowA" cx="18%" cy="22%" r="55%">
      <stop offset="0%" stop-color="#7cf7c1" stop-opacity="0.22"/>
      <stop offset="100%" stop-color="#7cf7c1" stop-opacity="0"/>
    </radialGradient>
    <radialGradient id="glowB" cx="84%" cy="72%" r="42%">
      <stop offset="0%" stop-color="#88c6ff" stop-opacity="0.20"/>
      <stop offset="100%" stop-color="#88c6ff" stop-opacity="0"/>
    </radialGradient>
  </defs>
  <rect width="1200" height="750" fill="url(#bg)"/>
  <rect width="1200" height="750" fill="url(#glowA)"/>
  <rect width="1200" height="750" fill="url(#glowB)"/>
  <g opacity="0.08" stroke="#d7ecff" stroke-width="1">
    <path d="M0 110 H1200"/><path d="M0 220 H1200"/><path d="M0 330 H1200"/><path d="M0 440 H1200"/><path d="M0 550 H1200"/><path d="M0 660 H1200"/>
    <path d="M130 0 V750"/><path d="M290 0 V750"/><path d="M450 0 V750"/><path d="M610 0 V750"/><path d="M770 0 V750"/><path d="M930 0 V750"/><path d="M1090 0 V750"/>
  </g>
  <path d="M220 520 C320 410, 255 335, 330 250 C365 210, 420 188, 440 150 C475 220, 550 280, 550 380 C550 468, 484 540, 385 540 C312 540, 248 528, 220 520 Z" fill="#7cf7c1" opacity="0.9"/><polyline points="680,470 760,430 840,445 920,390 1000,350" fill="none" stroke="#88c6ff" stroke-width="12" stroke-linecap="round" stroke-linejoin="round"/><polyline points="680,520 760,492 840,465 920,425 1000,388" fill="none" stroke="#f6d77a" stroke-width="7" opacity="0.7" stroke-linecap="round" stroke-linejoin="round"/><circle cx="1000" cy="350" r="16" fill="#88c6ff"/><line x1="680" y1="560" x2="1025" y2="560" stroke="#88c6ff" stroke-opacity="0.24" stroke-width="3"/>
</svg>