<svg xmlns="http://www.w3.org/2000/svg" viewBox="0 0 1200 750" role="img" aria-label="Operating System">
  <defs>
    <linearGradient id="bg" x1="0" y1="0" x2="1" y2="1">
      <stop offset="0%" stop-color="#091627"/>
      <stop offset="100%" stop-color="#123049"/>
    </linearGradient>
    <radialGradient id="glowA" cx="18%" cy="22%" r="55%">
      <stop offset="0%" stop-color="#79f0cf" stop-opacity="0.22"/>
      <stop offset="100%" stop-color="#79f0cf" stop-opacity="0"/>
    </radialGradient>
    <radialGradient id="glowB" cx="84%" cy="72%" r="42%">
      <stop offset="0%" stop-color="#88c6ff" stop-opacity="0.20"/>
      <stop offset="100%" stop-color="#88c6ff" stop-opacity="0"/>
    </radialGradient>
  </defs>
  <rect width="1200" height="750" fill="url(#bg)"/>
  <rect width="1200" height="750" fill="url(#glowA)"/>
  <rect width="1200" height="750" fill="url(#glowB)"/>
  <g opacity="0.08" stroke="#d7ecff" stroke-width="1">
    <path d="M0 110 H1200"/><path d="M0 220 H1200"/><path d="M0 330 H1200"/><path d="M0 440 H1200"/><path d="M0 550 H1200"/><path d="M0 660 H1200"/>
    <path d="M130 0 V750"/><path d="M290 0 V750"/><path d="M450 0 V750"/><path d="M610 0 V750"/><path d="M770 0 V750"/><path d="M930 0 V750"/><path d="M1090 0 V750"/>
  </g>
  <rect x="180" y="170" width="840" height="390" rx="30" fill="#0d1f36" stroke="#88c6ff" stroke-opacity="0.18"/><circle cx="238" cy="220" r="10" fill="#ff8d8d"/><circle cx="272" cy="220" r="10" fill="#f6d77a"/><circle cx="306" cy="220" r="10" fill="#79f0cf"/><rect x="235" y="270" width="310" height="22" rx="11" fill="#79f0cf" opacity="0.9"/><rect x="235" y="314" width="262" height="18" rx="9" fill="#88c6ff" opacity="0.75"/><rect x="235" y="356" width="340" height="18" rx="9" fill="#88c6ff" opacity="0.45"/><rect x="235" y="398" width="220" height="18" rx="9" fill="#f6d77a" opacity="0.78"/><g stroke="#79f0cf" stroke-width="8" opacity="0.7"><line x1="700" y1="290" x2="840" y2="290"/><line x1="760" y1="290" x2="760" y2="420"/><line x1="660" y1="360" x2="860" y2="360"/></g><g fill="#88c6ff"><rect x="640" y="250" width="120" height="60" rx="18"/><rect x="800" y="250" width="120" height="60" rx="18"/><rect x="700" y="390" width="120" height="60" rx="18"/></g>
</svg>