<svg xmlns="http://www.w3.org/2000/svg" viewBox="0 0 1200 750" role="img" aria-label="Distributed Store">
  <defs>
    <linearGradient id="bg" x1="0" y1="0" x2="1" y2="1">
      <stop offset="0%" stop-color="#08172a"/>
      <stop offset="100%" stop-color="#123854"/>
    </linearGradient>
    <radialGradient id="glowA" cx="18%" cy="22%" r="55%">
      <stop offset="0%" stop-color="#79f0cf" stop-opacity="0.22"/>
      <stop offset="100%" stop-color="#79f0cf" stop-opacity="0"/>
    </radialGradient>
    <radialGradient id="glowB" cx="84%" cy="72%" r="42%">
      <stop offset="0%" stop-color="#88c6ff" stop-opacity="0.20"/>
      <stop offset="100%" stop-color="#88c6ff" stop-opacity="0"/>
    </radialGradient>
  </defs>
  <rect width="1200" height="750" fill="url(#bg)"/>
  <rect width="1200" height="750" fill="url(#glowA)"/>
  <rect width="1200" height="750" fill="url(#glowB)"/>
  <g opacity="0.08" stroke="#d7ecff" stroke-width="1">
    <path d="M0 110 H1200"/><path d="M0 220 H1200"/><path d="M0 330 H1200"/><path d="M0 440 H1200"/><path d="M0 550 H1200"/><path d="M0 660 H1200"/>
    <path d="M130 0 V750"/><path d="M290 0 V750"/><path d="M450 0 V750"/><path d="M610 0 V750"/><path d="M770 0 V750"/><path d="M930 0 V750"/><path d="M1090 0 V750"/>
  </g>
  <rect x="190" y="235" width="180" height="110" rx="26" fill="#10223c"/><rect x="190" y="405" width="180" height="110" rx="26" fill="#10223c"/><rect x="510" y="320" width="190" height="110" rx="26" fill="#10223c"/><rect x="845" y="235" width="180" height="110" rx="26" fill="#10223c"/><rect x="845" y="405" width="180" height="110" rx="26" fill="#10223c"/><g stroke="#88c6ff" stroke-width="8" opacity="0.72"><line x1="370" y1="290" x2="510" y2="375"/><line x1="370" y1="460" x2="510" y2="375"/><line x1="700" y1="375" x2="845" y2="290"/><line x1="700" y1="375" x2="845" y2="460"/></g><g fill="#79f0cf"><circle cx="280" cy="290" r="20"/><circle cx="280" cy="460" r="20"/><circle cx="605" cy="375" r="22"/><circle cx="935" cy="290" r="20"/><circle cx="935" cy="460" r="20"/></g>
</svg>