<svg xmlns="http://www.w3.org/2000/svg" viewBox="0 0 1200 750" role="img" aria-label="Tool Use">
  <defs>
    <linearGradient id="bg" x1="0" y1="0" x2="1" y2="1">
      <stop offset="0%" stop-color="#08172b"/>
      <stop offset="100%" stop-color="#12334d"/>
    </linearGradient>
    <radialGradient id="glowA" cx="18%" cy="22%" r="55%">
      <stop offset="0%" stop-color="#79f0cf" stop-opacity="0.22"/>
      <stop offset="100%" stop-color="#79f0cf" stop-opacity="0"/>
    </radialGradient>
    <radialGradient id="glowB" cx="84%" cy="72%" r="42%">
      <stop offset="0%" stop-color="#88c6ff" stop-opacity="0.20"/>
      <stop offset="100%" stop-color="#88c6ff" stop-opacity="0"/>
    </radialGradient>
  </defs>
  <rect width="1200" height="750" fill="url(#bg)"/>
  <rect width="1200" height="750" fill="url(#glowA)"/>
  <rect width="1200" height="750" fill="url(#glowB)"/>
  <g opacity="0.08" stroke="#d7ecff" stroke-width="1">
    <path d="M0 110 H1200"/><path d="M0 220 H1200"/><path d="M0 330 H1200"/><path d="M0 440 H1200"/><path d="M0 550 H1200"/><path d="M0 660 H1200"/>
    <path d="M130 0 V750"/><path d="M290 0 V750"/><path d="M450 0 V750"/><path d="M610 0 V750"/><path d="M770 0 V750"/><path d="M930 0 V750"/><path d="M1090 0 V750"/>
  </g>
  <circle cx="340" cy="340" r="105" fill="#10223c"/><circle cx="650" cy="230" r="70" fill="#12314d"/><circle cx="820" cy="440" r="78" fill="#12314d"/><circle cx="1010" cy="250" r="62" fill="#12314d"/><g stroke="#79f0cf" stroke-width="8" opacity="0.7"><line x1="420" y1="300" x2="590" y2="245"/><line x1="410" y1="390" x2="760" y2="430"/><line x1="710" y1="245" x2="950" y2="250"/></g><g fill="#88c6ff"><rect x="302" y="305" width="76" height="76" rx="18"/><rect x="620" y="202" width="60" height="60" rx="16"/><rect x="787" y="407" width="66" height="66" rx="18"/><rect x="982" y="222" width="56" height="56" rx="16"/></g>
</svg>