<svg xmlns="http://www.w3.org/2000/svg" viewBox="0 0 1200 750" role="img" aria-label="Mechanistic AI">
  <defs>
    <linearGradient id="bg" x1="0" y1="0" x2="1" y2="1">
      <stop offset="0%" stop-color="#081628"/>
      <stop offset="100%" stop-color="#12354d"/>
    </linearGradient>
    <radialGradient id="glowA" cx="18%" cy="22%" r="55%">
      <stop offset="0%" stop-color="#79f0cf" stop-opacity="0.22"/>
      <stop offset="100%" stop-color="#79f0cf" stop-opacity="0"/>
    </radialGradient>
    <radialGradient id="glowB" cx="84%" cy="72%" r="42%">
      <stop offset="0%" stop-color="#88c6ff" stop-opacity="0.20"/>
      <stop offset="100%" stop-color="#88c6ff" stop-opacity="0"/>
    </radialGradient>
  </defs>
  <rect width="1200" height="750" fill="url(#bg)"/>
  <rect width="1200" height="750" fill="url(#glowA)"/>
  <rect width="1200" height="750" fill="url(#glowB)"/>
  <g opacity="0.08" stroke="#d7ecff" stroke-width="1">
    <path d="M0 110 H1200"/><path d="M0 220 H1200"/><path d="M0 330 H1200"/><path d="M0 440 H1200"/><path d="M0 550 H1200"/><path d="M0 660 H1200"/>
    <path d="M130 0 V750"/><path d="M290 0 V750"/><path d="M450 0 V750"/><path d="M610 0 V750"/><path d="M770 0 V750"/><path d="M930 0 V750"/><path d="M1090 0 V750"/>
  </g>
  <g transform="translate(230,180)"><rect width="260" height="260" rx="26" fill="#10233c"/><g fill="#88c6ff"><rect x="28" y="28" width="44" height="44" rx="8"/><rect x="84" y="28" width="44" height="44" rx="8" opacity="0.5"/><rect x="140" y="28" width="44" height="44" rx="8"/><rect x="196" y="28" width="44" height="44" rx="8" opacity="0.5"/><rect x="28" y="84" width="44" height="44" rx="8" opacity="0.45"/><rect x="84" y="84" width="44" height="44" rx="8"/><rect x="140" y="84" width="44" height="44" rx="8" opacity="0.45"/><rect x="196" y="84" width="44" height="44" rx="8"/><rect x="28" y="140" width="44" height="44" rx="8"/><rect x="84" y="140" width="44" height="44" rx="8" opacity="0.45"/><rect x="140" y="140" width="44" height="44" rx="8"/><rect x="196" y="140" width="44" height="44" rx="8" opacity="0.45"/><rect x="28" y="196" width="44" height="44" rx="8" opacity="0.45"/><rect x="84" y="196" width="44" height="44" rx="8"/><rect x="140" y="196" width="44" height="44" rx="8" opacity="0.45"/><rect x="196" y="196" width="44" height="44" rx="8"/></g></g><g fill="#79f0cf"><circle cx="690" cy="225" r="20"/><circle cx="790" cy="310" r="20"/><circle cx="700" cy="395" r="20"/><circle cx="880" cy="245" r="20"/><circle cx="910" cy="392" r="20"/></g><g stroke="#f6d77a" stroke-width="8" opacity="0.75"><line x1="690" y1="225" x2="790" y2="310"/><line x1="790" y1="310" x2="700" y2="395"/><line x1="790" y1="310" x2="880" y2="245"/><line x1="790" y1="310" x2="910" y2="392"/></g>
</svg>