<svg xmlns="http://www.w3.org/2000/svg" viewBox="0 0 1200 750" role="img" aria-label="Trustworthy Agent">
  <defs>
    <linearGradient id="bg" x1="0" y1="0" x2="1" y2="1">
      <stop offset="0%" stop-color="#09172a"/>
      <stop offset="100%" stop-color="#133852"/>
    </linearGradient>
    <radialGradient id="glowA" cx="18%" cy="22%" r="55%">
      <stop offset="0%" stop-color="#79f0cf" stop-opacity="0.22"/>
      <stop offset="100%" stop-color="#79f0cf" stop-opacity="0"/>
    </radialGradient>
    <radialGradient id="glowB" cx="84%" cy="72%" r="42%">
      <stop offset="0%" stop-color="#88c6ff" stop-opacity="0.20"/>
      <stop offset="100%" stop-color="#88c6ff" stop-opacity="0"/>
    </radialGradient>
  </defs>
  <rect width="1200" height="750" fill="url(#bg)"/>
  <rect width="1200" height="750" fill="url(#glowA)"/>
  <rect width="1200" height="750" fill="url(#glowB)"/>
  <g opacity="0.08" stroke="#d7ecff" stroke-width="1">
    <path d="M0 110 H1200"/><path d="M0 220 H1200"/><path d="M0 330 H1200"/><path d="M0 440 H1200"/><path d="M0 550 H1200"/><path d="M0 660 H1200"/>
    <path d="M130 0 V750"/><path d="M290 0 V750"/><path d="M450 0 V750"/><path d="M610 0 V750"/><path d="M770 0 V750"/><path d="M930 0 V750"/><path d="M1090 0 V750"/>
  </g>
  <g transform="translate(190,180)"><rect width="300" height="300" rx="30" fill="#10223c"/><g fill="#88c6ff"><rect x="30" y="30" width="48" height="48" rx="9"/><rect x="90" y="30" width="48" height="48" rx="9"/><rect x="150" y="30" width="48" height="48" rx="9" opacity="0.4"/><rect x="210" y="30" width="48" height="48" rx="9"/><rect x="30" y="90" width="48" height="48" rx="9" opacity="0.4"/><rect x="90" y="90" width="48" height="48" rx="9"/><rect x="150" y="90" width="48" height="48" rx="9"/><rect x="210" y="90" width="48" height="48" rx="9" opacity="0.4"/><rect x="30" y="150" width="48" height="48" rx="9"/><rect x="90" y="150" width="48" height="48" rx="9" opacity="0.4"/><rect x="150" y="150" width="48" height="48" rx="9"/><rect x="210" y="150" width="48" height="48" rx="9"/><rect x="30" y="210" width="48" height="48" rx="9" opacity="0.4"/><rect x="90" y="210" width="48" height="48" rx="9"/><rect x="150" y="210" width="48" height="48" rx="9" opacity="0.4"/><rect x="210" y="210" width="48" height="48" rx="9"/></g></g><path d="M700 210 L980 210 L980 270 L700 270 Z" fill="#10223c"/><rect x="720" y="228" width="120" height="20" rx="10" fill="#79f0cf"/><rect x="860" y="228" width="90" height="20" rx="10" fill="#88c6ff"/><path d="M740 360 C790 320, 860 320, 910 360" fill="none" stroke="#f6d77a" stroke-width="14" stroke-linecap="round"/><circle cx="740" cy="410" r="18" fill="#79f0cf"/><circle cx="910" cy="410" r="18" fill="#ff8d8d"/>
</svg>