<svg width="1600" height="900" viewBox="0 0 1600 900" fill="none" xmlns="http://www.w3.org/2000/svg">
  <rect width="1600" height="900" rx="48" fill="#F8FBFF"/>
  <rect x="520" y="110" width="560" height="680" rx="18" fill="#FFFFFF" stroke="#0E1A26" stroke-width="10"/>
  <rect x="560" y="150" width="480" height="90" fill="#FFFFFF" stroke="#111111" stroke-width="8"/>
  <rect x="560" y="265" width="480" height="34" fill="#111111"/>
  <rect x="560" y="318" width="480" height="54" fill="#FFFFFF" stroke="#111111" stroke-width="6"/>
  <rect x="560" y="392" width="480" height="22" fill="#111111"/>
  <rect x="560" y="431" width="480" height="38" fill="#FFFFFF" stroke="#111111" stroke-width="4"/>
  <rect x="560" y="486" width="480" height="16" fill="#111111"/>
  <rect x="560" y="519" width="480" height="32" fill="#FFFFFF" stroke="#111111" stroke-width="3"/>
  <rect x="560" y="567" width="480" height="14" fill="#111111"/>
  <rect x="560" y="596" width="480" height="26" fill="#FFFFFF" stroke="#111111" stroke-width="3"/>
  <rect x="560" y="636" width="480" height="12" fill="#111111"/>
  <rect x="560" y="663" width="480" height="22" fill="#FFFFFF" stroke="#111111" stroke-width="3"/>
  <rect x="560" y="699" width="480" height="46" fill="#FFFFFF" stroke="#111111" stroke-width="4"/>
  <g fill="#111111">
    <rect x="582" y="177" width="230" height="18" rx="4"/>
    <rect x="582" y="205" width="350" height="12" rx="4"/>
    <rect x="582" y="333" width="180" height="12" rx="4"/>
    <rect x="582" y="446" width="150" height="8" rx="4"/>
    <rect x="582" y="529" width="210" height="8" rx="4"/>
    <rect x="582" y="603" width="240" height="8" rx="4"/>
    <rect x="582" y="669" width="180" height="8" rx="4"/>
    <rect x="582" y="713" width="410" height="10" rx="4"/>
  </g>
  <g fill="#FFFFFF">
    <rect x="570" y="273" width="120" height="18" rx="4"/>
    <rect x="570" y="399" width="80" height="8" rx="4"/>
    <rect x="570" y="489" width="90" height="8" rx="4"/>
    <rect x="570" y="639" width="90" height="6" rx="3"/>
  </g>
</svg>
