<svg width="1600" height="900" viewBox="0 0 1600 900" fill="none" xmlns="http://www.w3.org/2000/svg">
  <defs>
    <linearGradient id="bg" x1="180" y1="120" x2="1420" y2="780" gradientUnits="userSpaceOnUse">
      <stop stop-color="#071423"/>
      <stop offset="1" stop-color="#10233A"/>
    </linearGradient>
    <linearGradient id="glow" x1="420" y1="180" x2="1180" y2="720" gradientUnits="userSpaceOnUse">
      <stop stop-color="#72F0DE" stop-opacity="0.28"/>
      <stop offset="1" stop-color="#56A8FF" stop-opacity="0.22"/>
    </linearGradient>
    <filter id="soft" x="-40%" y="-40%" width="180%" height="180%">
      <feGaussianBlur stdDeviation="28"/>
    </filter>
  </defs>
  <rect width="1600" height="900" rx="48" fill="url(#bg)"/>
  <ellipse cx="800" cy="460" rx="360" ry="210" fill="url(#glow)" filter="url(#soft)"/>
  <g opacity="0.9">
    <rect x="440" y="170" width="720" height="120" rx="28" fill="#15273E" stroke="#6BE6D4" stroke-width="6"/>
    <rect x="470" y="195" width="120" height="70" rx="18" fill="#79EAD9" fill-opacity="0.18"/>
    <rect x="610" y="195" width="180" height="16" rx="8" fill="#DDE9F8"/>
    <rect x="610" y="226" width="240" height="12" rx="6" fill="#A3B5CF"/>
    <rect x="610" y="252" width="150" height="12" rx="6" fill="#7F96B4"/>
  </g>
  <g opacity="0.92">
    <rect x="390" y="340" width="820" height="140" rx="30" fill="#12243A" stroke="#66BFFF" stroke-width="6"/>
    <rect x="430" y="378" width="180" height="64" rx="22" fill="#5FAEFF" fill-opacity="0.16"/>
    <circle cx="520" cy="410" r="18" fill="#7BDDF5"/>
    <rect x="650" y="372" width="230" height="18" rx="9" fill="#E3EEF9"/>
    <rect x="650" y="405" width="300" height="12" rx="6" fill="#A8BCD3"/>
    <rect x="650" y="431" width="210" height="12" rx="6" fill="#819AB8"/>
    <rect x="1040" y="370" width="120" height="78" rx="22" fill="#5FAEFF" fill-opacity="0.14"/>
    <path d="M1070 410H1130" stroke="#BFE8FF" stroke-width="8" stroke-linecap="round"/>
    <path d="M1100 380V440" stroke="#BFE8FF" stroke-width="8" stroke-linecap="round"/>
  </g>
  <g opacity="0.95">
    <rect x="330" y="530" width="940" height="160" rx="34" fill="#101E31" stroke="#4E77A8" stroke-width="5"/>
    <g>
      <rect x="380" y="578" width="140" height="64" rx="20" fill="#A8D8FF" fill-opacity="0.12"/>
      <rect x="560" y="578" width="140" height="64" rx="20" fill="#A8D8FF" fill-opacity="0.12"/>
      <rect x="740" y="578" width="140" height="64" rx="20" fill="#A8D8FF" fill-opacity="0.12"/>
      <rect x="920" y="578" width="140" height="64" rx="20" fill="#A8D8FF" fill-opacity="0.12"/>
      <rect x="1100" y="578" width="120" height="64" rx="20" fill="#A8D8FF" fill-opacity="0.12"/>
    </g>
    <g stroke="#96B7D7" stroke-width="6" stroke-linecap="round">
      <path d="M520 610H560"/>
      <path d="M700 610H740"/>
      <path d="M880 610H920"/>
      <path d="M1060 610H1100"/>
    </g>
  </g>
</svg>
