<svg width="2966" height="1408" xmlns="http://www.w3.org/2000/svg" xmlns:xlink="http://www.w3.org/1999/xlink" xml:space="preserve" overflow="hidden"><g transform="translate(-650 -572)"><g><rect x="1374.5" y="1762.5" width="1692" height="213" stroke="#06172D" stroke-width="6.875" stroke-linecap="butt" stroke-linejoin="miter" stroke-miterlimit="8" stroke-opacity="1" fill="#0B2341" fill-opacity="1"/><text fill="#FFFFFF" fill-opacity="1" font-family="Aptos,Aptos_MSFontService,sans-serif" font-style="normal" font-variant="normal" font-weight="400" font-stretch="normal" font-size="83" text-anchor="start" direction="ltr" writing-mode="lr-tb" unicode-bidi="normal" text-decoration="none" transform="matrix(1 0 0 1 1855.95 1895)">Computer Hardware</text><rect x="1374.5" y="1502.5" width="1692" height="213" stroke="#06172D" stroke-width="6.875" stroke-linecap="butt" stroke-linejoin="miter" stroke-miterlimit="8" stroke-opacity="1" fill="#92D050" fill-opacity="1"/><text fill="#000000" fill-opacity="1" font-family="Aptos,Aptos_MSFontService,sans-serif" font-style="normal" font-variant="normal" font-weight="400" font-stretch="normal" font-size="83" text-anchor="start" direction="ltr" writing-mode="lr-tb" unicode-bidi="normal" text-decoration="none" transform="matrix(1 0 0 1 2106.76 1635)">Kernel</text><rect x="974.5" y="1310.5" width="2636" height="47.0001" stroke="#06172D" stroke-width="6.875" stroke-linecap="butt" stroke-linejoin="miter" stroke-miterlimit="8" stroke-opacity="1" fill="#FF0000" fill-opacity="1"/><path d="M974.5 900C974.5 811.358 1109.26 739.5 1275.5 739.5 1441.74 739.5 1576.5 811.358 1576.5 900 1576.5 988.642 1441.74 1060.5 1275.5 1060.5 1109.26 1060.5 974.5 988.642 974.5 900Z" stroke="#000000" stroke-width="6.875" stroke-linecap="butt" stroke-linejoin="miter" stroke-miterlimit="8" stroke-opacity="1" fill="none" fill-rule="evenodd"/><text fill="#000000" fill-opacity="1" font-family="Aptos,Aptos_MSFontService,sans-serif" font-style="normal" font-variant="normal" font-weight="400" font-stretch="normal" font-size="83" text-anchor="start" direction="ltr" writing-mode="lr-tb" unicode-bidi="normal" text-decoration="none" transform="matrix(1 0 0 1 1131.85 926)">Process</text><path d="M1918.5 900C1918.5 811.358 2053.26 739.5 2219.5 739.5 2385.74 739.5 2520.5 811.358 2520.5 900 2520.5 988.642 2385.74 1060.5 2219.5 1060.5 2053.26 1060.5 1918.5 988.642 1918.5 900Z" stroke="#000000" stroke-width="6.875" stroke-linecap="butt" stroke-linejoin="miter" stroke-miterlimit="8" stroke-opacity="1" fill="none" fill-rule="evenodd"/><text fill="#000000" fill-opacity="1" font-family="Aptos,Aptos_MSFontService,sans-serif" font-style="normal" font-variant="normal" font-weight="400" font-stretch="normal" font-size="83" text-anchor="start" direction="ltr" writing-mode="lr-tb" unicode-bidi="normal" text-decoration="none" transform="matrix(1 0 0 1 2076.19 926)">Process</text><path d="M3008.5 900C3008.5 811.358 3143.26 739.5 3309.5 739.5 3475.74 739.5 3610.5 811.358 3610.5 900 3610.5 988.642 3475.74 1060.5 3309.5 1060.5 3143.26 1060.5 3008.5 988.642 3008.5 900Z" stroke="#000000" stroke-width="6.875" stroke-linecap="butt" stroke-linejoin="miter" stroke-miterlimit="8" stroke-opacity="1" fill="none" fill-rule="evenodd"/><text fill="#000000" fill-opacity="1" font-family="Aptos,Aptos_MSFontService,sans-serif" font-style="normal" font-variant="normal" font-weight="400" font-stretch="normal" font-size="83" text-anchor="start" direction="ltr" writing-mode="lr-tb" unicode-bidi="normal" text-decoration="none" transform="matrix(1 0 0 1 3165.81 926)">Process</text><text fill="#000000" fill-opacity="1" font-family="Aptos,Aptos_MSFontService,sans-serif" font-style="normal" font-variant="normal" font-weight="400" font-stretch="normal" font-size="83" text-anchor="start" direction="ltr" writing-mode="lr-tb" unicode-bidi="normal" text-decoration="none" transform="matrix(1 0 0 1 702.367 675)">User Space</text><text fill="#000000" fill-opacity="1" font-family="Aptos,Aptos_MSFontService,sans-serif" font-style="normal" font-variant="normal" font-weight="400" font-stretch="normal" font-size="83" text-anchor="start" direction="ltr" writing-mode="lr-tb" unicode-bidi="normal" text-decoration="none" transform="matrix(1 0 0 1 702.042 1525)">Kernel Space</text><path d="M1312.1 1118.35 1623.46 1439.34 1620.17 1442.53 1308.81 1121.55ZM1303.78 1132.81 1294.5 1103.5 1323.52 1113.67ZM1628.49 1428.07 1637.77 1457.39 1608.75 1447.22Z" fill="#000000" fill-rule="nonzero" fill-opacity="1"/><path d="M2246.79 1156.42 2246.79 1452.73 2242.21 1452.73 2242.21 1156.42ZM2230.75 1161 2244.5 1133.5 2258.25 1161ZM2258.25 1448.14 2244.5 1475.64 2230.75 1448.14Z" fill="#000000" fill-rule="nonzero" fill-opacity="1"/><path d="M16.294 16.2765 277.112 334.706 273.567 337.61 12.7482 19.1807ZM6.78822 29.9872 0 0 28.0627 12.5617ZM283.073 323.9 289.861 353.887 261.798 341.325Z" fill="#000000" fill-rule="nonzero" fill-opacity="1" transform="matrix(-1 0 0 1 3269.36 1103.5)"/></g></g></svg>