<?xml version="1.0" encoding="UTF-8" standalone="no"?>
<svg xmlns:dc="http://purl.org/dc/elements/1.1/" xmlns:rdf="http://www.w3.org/1999/02/22-rdf-syntax-ns#" xmlns:svg="http://www.w3.org/2000/svg" xmlns="http://www.w3.org/2000/svg" width="524.40942" height="744.09448" version="1.0">
  <g transform="translate(-2.412476,4.523387)">
    <path d="M 187.97949,571.63877 C 94.424946,571.63877 19.114216,593.77471 19.114216,621.26131 L 19.114216,719.35468 L 510.12016,719.35468 L 510.12016,621.26131 C 510.12016,593.77471 434.80942,571.63877 341.25488,571.63877 L 187.97949,571.63877 z" style="opacity:1;fill:#f70000;fill-opacity:1;stroke:black;stroke-width:4.99973011;stroke-miterlimit:4;stroke-dasharray:none;stroke-opacity:1;display:inline"/>
    <path d="M 188.07384,436.77563 C 94.649096,436.77563 19.442786,465.73107 19.442866,501.68557 L 19.442866,636.92343 C 19.442786,600.96893 94.649096,572.01347 188.07384,572.01347 L 341.13656,572.01347 C 434.56123,572.01347 509.79151,600.96891 509.79151,636.92343 L 509.79151,501.68557 C 509.79151,465.73104 434.56123,436.77563 341.13656,436.77563 L 188.07384,436.77563 z" style="opacity:1;fill:#f79700;fill-opacity:1;stroke:black;stroke-width:5.71427584;stroke-miterlimit:4;stroke-dasharray:none;stroke-opacity:1;display:inline"/>
    <path d="M 188.0738,301.53777 C 94.649046,301.53777 19.442816,330.49318 19.442896,366.44771 L 19.442896,501.68557 C 19.442816,465.73107 94.649046,436.77563 188.0738,436.77563 L 341.13651,436.77563 C 434.56126,436.77563 509.79148,465.73104 509.79148,501.68557 L 509.79148,366.44771 C 509.79148,330.49318 434.56126,301.53777 341.13651,301.53777 L 188.0738,301.53777 z" style="opacity:1;fill:#d2f700;fill-opacity:1;stroke:black;stroke-width:5.71427584;stroke-miterlimit:4;stroke-dasharray:none;stroke-opacity:1;display:inline"/>
    <path style="opacity:1;fill:#00a9f7;fill-opacity:1;stroke:black;stroke-width:5.71427584;stroke-miterlimit:4;stroke-dasharray:none;stroke-opacity:1;display:inline" d="M 19.442866,16.050301 L 19.442866,231.20985 C 19.442866,195.25534 94.649096,166.29992 188.07384,166.29992 L 341.13656,166.29992 C 434.56139,166.29992 509.79151,195.25534 509.79151,231.20985 L 509.79151,16.050301 L 19.442866,16.050301 z"/>
    <path d="M 188.07379,166.29992 C 94.649046,166.29992 19.442906,195.25534 19.442826,231.20985 L 19.442826,366.44771 C 19.442906,330.49318 94.649046,301.53777 188.07379,301.53777 L 341.13658,301.53777 C 434.56132,301.53777 509.79155,330.49318 509.79155,366.44771 L 509.79155,231.20985 C 509.79155,195.25534 434.5614,166.29992 341.13658,166.29992 L 188.07379,166.29992 z" style="opacity:1;fill:#4bf700;fill-opacity:1;stroke:black;stroke-width:5.71427584;stroke-miterlimit:4;stroke-dasharray:none;stroke-opacity:1;display:inline"/>
    <text transform="scale(1.032253,0.968755)" y="695.80298" x="255.24178" style="font-size:58.91082764px;font-style:normal;font-variant:normal;font-weight:normal;font-stretch:normal;text-align:center;line-height:100%;writing-mode:lr-tb;text-anchor:middle;opacity:1;fill:black;fill-opacity:1;stroke:none;stroke-width:1px;stroke-linecap:butt;stroke-linejoin:miter;stroke-opacity:1;display:inline;font-family:Sans" xml:space="preserve"><tspan y="695.80298" x="255.24178">hardware</tspan></text>
    <text transform="scale(1.032253,0.968755)" y="543.05872" x="257.24097" style="font-size:58.91082764px;font-style:normal;font-variant:normal;font-weight:normal;font-stretch:normal;text-align:center;line-height:100%;writing-mode:lr-tb;text-anchor:middle;opacity:1;fill:black;fill-opacity:1;stroke:none;stroke-width:1px;stroke-linecap:butt;stroke-linejoin:miter;stroke-opacity:1;display:inline;font-family:Sans" xml:space="preserve"><tspan y="543.05872" x="257.24097">firmware</tspan></text>
    <text transform="scale(1.032253,0.968755)" y="402.87531" x="254.60895" style="font-size:58.91082764px;font-style:normal;font-variant:normal;font-weight:normal;font-stretch:normal;text-align:center;line-height:100%;writing-mode:lr-tb;text-anchor:middle;opacity:1;fill:black;fill-opacity:1;stroke:none;stroke-width:1px;stroke-linecap:butt;stroke-linejoin:miter;stroke-opacity:1;display:inline;font-family:Sans" xml:space="preserve"><tspan y="402.87531" x="254.60895">assembler</tspan></text>
    <text transform="scale(1.032253,0.968755)" y="262.69174" x="256.42114" style="font-size:58.91082764px;font-style:normal;font-variant:normal;font-weight:normal;font-stretch:normal;text-align:center;line-height:100%;writing-mode:lr-tb;text-anchor:middle;opacity:1;fill:black;fill-opacity:1;stroke:none;stroke-width:1px;stroke-linecap:butt;stroke-linejoin:miter;stroke-opacity:1;display:inline;font-family:Sans" xml:space="preserve"><tspan y="262.69174" x="256.42114">kernel</tspan></text>
    <text transform="scale(1.032253,0.968755)" y="77.294418" x="256.03284" style="font-size:58.91082764px;font-style:normal;font-variant:normal;font-weight:normal;font-stretch:normal;text-align:center;line-height:100%;writing-mode:lr-tb;text-anchor:middle;opacity:1;fill:black;fill-opacity:1;stroke:none;stroke-width:1px;stroke-linecap:butt;stroke-linejoin:miter;stroke-opacity:1;display:inline;font-family:Sans" xml:space="preserve"><tspan y="77.294418" x="256.03284">OS and</tspan><tspan y="136.20525" x="256.03284">applications</tspan></text>
  </g>
</svg>
