<svg width="1600" height="900" viewBox="0 0 1600 900" fill="none" xmlns="http://www.w3.org/2000/svg">
  <defs>
    <linearGradient id="bg" x1="140" y1="120" x2="1450" y2="780" gradientUnits="userSpaceOnUse">
      <stop stop-color="#081424"/>
      <stop offset="1" stop-color="#122945"/>
    </linearGradient>
    <radialGradient id="halo" cx="0" cy="0" r="1" gradientUnits="userSpaceOnUse" gradientTransform="translate(800 450) rotate(90) scale(250 420)">
      <stop stop-color="#79EDE3" stop-opacity="0.24"/>
      <stop offset="1" stop-color="#79EDE3" stop-opacity="0"/>
    </radialGradient>
  </defs>
  <rect width="1600" height="900" rx="48" fill="url(#bg)"/>
  <rect width="1600" height="900" rx="48" fill="url(#halo)"/>
  <g stroke="#567AA8" stroke-width="5" opacity="0.9">
    <path d="M420 300H1180"/>
    <path d="M420 450H1180"/>
    <path d="M420 600H1180"/>
    <path d="M560 220V680"/>
    <path d="M800 200V700"/>
    <path d="M1040 220V680"/>
  </g>
  <g fill="#DCEAF8">
    <circle cx="560" cy="300" r="22"/>
    <circle cx="560" cy="450" r="22"/>
    <circle cx="560" cy="600" r="22"/>
    <circle cx="800" cy="300" r="22"/>
    <circle cx="800" cy="450" r="22" fill="#7CEADF"/>
    <circle cx="800" cy="600" r="22"/>
    <circle cx="1040" cy="300" r="22"/>
    <circle cx="1040" cy="450" r="22"/>
    <circle cx="1040" cy="600" r="22"/>
  </g>
  <g stroke="#7CEADF" stroke-width="7" stroke-linecap="round" opacity="0.95">
    <path d="M580 300L780 300"/>
    <path d="M580 450L780 450"/>
    <path d="M580 600L780 600"/>
    <path d="M820 300L1020 450"/>
    <path d="M820 450L1020 450"/>
    <path d="M820 600L1020 450"/>
  </g>
  <g>
    <rect x="665" y="355" width="270" height="190" rx="32" fill="#13253A" stroke="#7CEADF" stroke-width="6"/>
    <rect x="705" y="392" width="82" height="82" rx="20" fill="#7CEADF" fill-opacity="0.18"/>
    <rect x="814" y="392" width="82" height="82" rx="20" fill="#5FB0FF" fill-opacity="0.18"/>
    <path d="M726 433H766" stroke="#DFF8F4" stroke-width="8" stroke-linecap="round"/>
    <path d="M836 433H876" stroke="#DFF8F4" stroke-width="8" stroke-linecap="round"/>
    <rect x="720" y="493" width="160" height="14" rx="7" fill="#E8F1FB"/>
  </g>
</svg>
